<?xml version="1.0" encoding="utf-8"?>
<!-- Generator: Adobe Illustrator 16.0.0, SVG Export Plug-In . SVG Version: 6.00 Build 0)  -->
<!DOCTYPE svg PUBLIC "-//W3C//DTD SVG 1.1//EN" "http://www.w3.org/Graphics/SVG/1.1/DTD/svg11.dtd">
<svg version="1.1" id="Layer_1" xmlns="http://www.w3.org/2000/svg" xmlns:xlink="http://www.w3.org/1999/xlink" x="0px" y="0px"
	 width="207.633px" height="122.737px" viewBox="0 0 207.633 122.737" enable-background="new 0 0 207.633 122.737"
	 xml:space="preserve">
<g>
	
		<linearGradient id="SVGID_1_" gradientUnits="userSpaceOnUse" x1="-1304.7852" y1="332.418" x2="-1180.7188" y2="332.418" gradientTransform="matrix(1 0 0 -1 1304.7852 394.1094)">
		<stop  offset="0" style="stop-color:#EC2527"/>
		<stop  offset="1" style="stop-color:#EF3733"/>
	</linearGradient>
	<path opacity="0.8" fill="url(#SVGID_1_)" enable-background="new    " d="M0,2.544h32.012l30.098,78.685L92.238,2.544h31.828
		L76.854,120.84H47.395L0,2.544z"/>
	<path fill="#119456" d="M137.9,121.258c-7.334-1.397-13.363-3.349-18.102-5.823V88.518c6.09,3.158,12.453,5.535,19.043,7.106
		c6.592,1.58,12.879,2.377,18.877,2.377c5.512,0,9.703-0.858,12.527-2.544c2.795-1.7,4.207-4.115,4.207-7.289
		c0-2.361-0.744-4.427-2.277-6.173c-1.504-1.754-3.752-3.355-6.684-4.821c-2.945-1.473-7.516-3.508-13.697-6.09
		c-10.947-4.639-18.906-9.764-23.887-15.413c-4.92-5.634-7.395-12.573-7.395-20.805c0-6.772,1.867-12.786,5.633-18.116
		c3.797-5.284,9.082-9.415,15.84-12.331C148.744,1.474,156.549,0,165.342,0c7.213,0,13.652,0.577,19.285,1.701
		c5.635,1.139,11.055,2.938,16.234,5.414v26.226c-9.902-5.187-19.895-7.783-29.947-7.783c-5.391,0-9.719,0.866-12.938,2.612
		c-3.219,1.754-4.844,4.26-4.844,7.532c0,3.28,1.654,5.922,4.949,7.957c3.25,2.035,9.295,4.799,18.086,8.299
		c8.004,3.272,14.244,6.484,18.709,9.636c4.449,3.158,7.67,6.833,9.703,10.994c2.021,4.191,3.053,9.476,3.053,15.914
		c0,10.949-3.994,19.483-11.936,25.634s-19.832,9.232-35.609,9.232C152.631,123.368,145.236,122.67,137.9,121.258z"/>
</g>
</svg>
